<?xml version="1.0" encoding="UTF-8" standalone="no"?>
<!-- Created with Inkscape (http://www.inkscape.org/) -->

<svg
   xmlns:dc="http://purl.org/dc/elements/1.1/"
   xmlns:cc="http://creativecommons.org/ns#"
   xmlns:rdf="http://www.w3.org/1999/02/22-rdf-syntax-ns#"
   xmlns:svg="http://www.w3.org/2000/svg"
   xmlns="http://www.w3.org/2000/svg"
   xmlns:sodipodi="http://sodipodi.sourceforge.net/DTD/sodipodi-0.dtd"
   xmlns:inkscape="http://www.inkscape.org/namespaces/inkscape"
   width="297mm"
   height="30mm"
   viewBox="0 0 1052.3622 106.29921"
   id="svg2"
   version="1.1"
   inkscape:version="0.91 r13725"
   sodipodi:docname="logo.svg"
   inkscape:export-filename="/Users/ferretti/Desktop/science_outreach/png/vaccine_ita.png"
   inkscape:export-xdpi="350"
   inkscape:export-ydpi="350">
  <defs
     id="defs4">
    <inkscape:path-effect
       effect="spiro"
       id="path-effect5213"
       is_visible="true" />
    <inkscape:path-effect
       effect="spiro"
       id="path-effect4298"
       is_visible="true" />
  </defs>
  <sodipodi:namedview
     id="base"
     pagecolor="#ffffff"
     bordercolor="#666666"
     borderopacity="1.0"
     inkscape:pageopacity="1"
     inkscape:pageshadow="2"
     inkscape:zoom="2.0173663"
     inkscape:cx="526.1811"
     inkscape:cy="48.927012"
     inkscape:document-units="px"
     inkscape:current-layer="layer1"
     showgrid="false"
     inkscape:window-width="2560"
     inkscape:window-height="1353"
     inkscape:window-x="5"
     inkscape:window-y="33"
     inkscape:window-maximized="0" />
  <metadata
     id="metadata7">
    <rdf:RDF>
      <cc:Work
         rdf:about="">
        <dc:format>image/svg+xml</dc:format>
        <dc:type
           rdf:resource="http://purl.org/dc/dcmitype/StillImage" />
        <dc:title></dc:title>
      </cc:Work>
    </rdf:RDF>
  </metadata>
  <g
     inkscape:label="Layer 1"
     inkscape:groupmode="layer"
     id="layer1"
     transform="translate(0,-946.06299)"
     style="display:inline">
    <g
       id="g5395"
       transform="matrix(-1,0,0,1,830.7324,297.41749)">
      <path
         style="fill:#323232;fill-opacity:1;fill-rule:evenodd;stroke:#000000;stroke-width:1px;stroke-linecap:butt;stroke-linejoin:miter;stroke-opacity:1"
         d="m 325.62367,941.95158 12.96886,-6.65968 6.65969,-2.27832 14.37091,-2.27831 13.31937,-1.05153 12.79361,0.70102 11.04106,1.40204 9.28851,2.80408 5.25765,2.62882 4.38137,3.5051 -13.84513,3.68035 -11.04107,1.92781 -9.46376,1.05153 -13.66989,1.40204 -11.39157,0.87627 -8.938,0 -7.71122,-1.05153 -6.65968,-1.57729 -6.48444,-2.97934 z"
         id="path5397"
         inkscape:connector-curvature="0" />
      <path
         style="fill:#ff9000;fill-opacity:1;fill-rule:evenodd;stroke:#000000;stroke-width:1px;stroke-linecap:butt;stroke-linejoin:miter;stroke-opacity:1"
         d="m 352.08716,961.22963 6.48444,-7.01019 5.08239,-3.85561 10.5153,-4.20612 11.74208,-2.97934 12.96886,-2.80407 10.69055,1.22678 -0.70102,6.13392 -9.28851,5.60816 -10.16479,4.20612 -14.3709,5.25765 -7.71122,1.40204 -8.23698,-0.17526 -4.03086,-0.87627 -3.5051,-1.92781"
         id="path5399"
         inkscape:connector-curvature="0" />
    </g>
    <text
       xml:space="preserve"
       style="font-style:normal;font-weight:normal;font-size:12.5px;line-height:125%;font-family:sans-serif;letter-spacing:0px;word-spacing:0px;fill:#000000;fill-opacity:1;stroke:none;stroke-width:1px;stroke-linecap:butt;stroke-linejoin:miter;stroke-opacity:1"
       x="1016.0607"
       y="753.07227"
       id="text6258"
       sodipodi:linespacing="125%"><tspan
         sodipodi:role="line"
         id="tspan6260"
         x="1016.0607"
         y="753.07227" /><tspan
         sodipodi:role="line"
         x="1016.0607"
         y="768.69727"
         id="tspan6262" /></text>
    <text
       xml:space="preserve"
       style="font-style:normal;font-weight:normal;font-size:12.5px;line-height:125%;font-family:sans-serif;letter-spacing:0px;word-spacing:0px;fill:#000000;fill-opacity:1;stroke:none;stroke-width:1px;stroke-linecap:butt;stroke-linejoin:miter;stroke-opacity:1"
       x="182.36987"
       y="620.90179"
       id="text5175"
       sodipodi:linespacing="125%"><tspan
         sodipodi:role="line"
         id="tspan5177"
         x="182.36987"
         y="620.90179" /></text>
    <text
       xml:space="preserve"
       style="font-style:normal;font-weight:normal;font-size:12.5px;line-height:125%;font-family:sans-serif;letter-spacing:0px;word-spacing:0px;fill:#000000;fill-opacity:1;stroke:none;stroke-width:1px;stroke-linecap:butt;stroke-linejoin:miter;stroke-opacity:1"
       x="392.06345"
       y="699.0603"
       id="text5183"
       sodipodi:linespacing="125%"><tspan
         sodipodi:role="line"
         id="tspan5185"
         x="392.06345"
         y="699.0603" /></text>
    <text
       xml:space="preserve"
       style="font-style:normal;font-weight:normal;font-size:12.5px;line-height:125%;font-family:sans-serif;letter-spacing:0px;word-spacing:0px;fill:#000000;fill-opacity:1;stroke:none;stroke-width:1px;stroke-linecap:butt;stroke-linejoin:miter;stroke-opacity:1"
       x="76.88765"
       y="739.72815"
       id="text5389"
       sodipodi:linespacing="125%"><tspan
         sodipodi:role="line"
         id="tspan5391"
         x="76.88765"
         y="739.72815" /></text>
    <text
       sodipodi:linespacing="125%"
       id="text5282"
       y="1084.708"
       x="10.802348"
       style="font-style:normal;font-weight:normal;font-size:12.5px;line-height:125%;font-family:sans-serif;letter-spacing:0px;word-spacing:0px;fill:#000000;fill-opacity:1;stroke:none;stroke-width:1px;stroke-linecap:butt;stroke-linejoin:miter;stroke-opacity:1"
       xml:space="preserve"><tspan
         id="tspan5302"
         style="font-style:normal;font-variant:normal;font-weight:normal;font-stretch:normal;font-size:11.25px;font-family:Arial;-inkscape-font-specification:Arial"
         y="1084.708"
         x="10.802348"
         sodipodi:role="line" /></text>
    <flowRoot
       xml:space="preserve"
       id="flowRoot5199"
       style="font-style:normal;font-weight:normal;font-size:12.5px;line-height:125%;font-family:sans-serif;letter-spacing:0px;word-spacing:0px;fill:#000000;fill-opacity:1;stroke:none;stroke-width:1px;stroke-linecap:butt;stroke-linejoin:miter;stroke-opacity:1"><flowRegion
         id="flowRegion5201"><rect
           id="rect5203"
           width="564.16669"
           height="50"
           x="4.1666665"
           y="-65.90551" /></flowRegion><flowPara
         id="flowPara5205" /></flowRoot>    <text
       xml:space="preserve"
       style="font-style:normal;font-weight:normal;font-size:12.5px;line-height:125%;font-family:sans-serif;letter-spacing:0px;word-spacing:0px;fill:#000000;fill-opacity:1;stroke:none;stroke-width:1px;stroke-linecap:butt;stroke-linejoin:miter;stroke-opacity:1"
       x="522.95911"
       y="1176.2861"
       id="text5195"
       sodipodi:linespacing="125%"><tspan
         sodipodi:role="line"
         id="tspan5197"
         x="522.95911"
         y="1176.2861"
         style="font-style:normal;font-variant:normal;font-weight:800;font-stretch:normal;font-size:25px;font-family:'Hiragino Kaku Gothic StdN';-inkscape-font-specification:'Hiragino Kaku Gothic StdN Ultra-Bold'">Easy Infographics</tspan></text>
    <text
       sodipodi:linespacing="125%"
       id="text5199"
       y="1282.3651"
       x="356.901"
       style="font-style:normal;font-weight:normal;font-size:12.5px;line-height:125%;font-family:sans-serif;letter-spacing:0px;word-spacing:0px;fill:#000000;fill-opacity:1;stroke:none;stroke-width:1px;stroke-linecap:butt;stroke-linejoin:miter;stroke-opacity:1"
       xml:space="preserve"><tspan
         style="font-style:normal;font-variant:normal;font-weight:bold;font-stretch:normal;font-size:25px;font-family:InaiMathi;-inkscape-font-specification:'InaiMathi Bold';fill:#333333"
         y="1282.3651"
         x="356.901"
         id="tspan5201"
         sodipodi:role="line">Easy Infographics</tspan></text>
    <path
       style="color:#000000;clip-rule:nonzero;display:inline;overflow:visible;visibility:visible;opacity:0;isolation:auto;mix-blend-mode:normal;color-interpolation:sRGB;color-interpolation-filters:linearRGB;solid-color:#000000;solid-opacity:1;fill:#916767;fill-opacity:1;fill-rule:nonzero;stroke:#1444b8;stroke-width:4;stroke-linecap:round;stroke-linejoin:bevel;stroke-miterlimit:4;stroke-dasharray:none;stroke-dashoffset:0;stroke-opacity:1;color-rendering:auto;image-rendering:auto;shape-rendering:auto;text-rendering:auto;enable-background:accumulate"
       id="path5215"
       d="m 81.383964,1191.1876 c 1.212073,0.4333 2.459033,0.8544 3.742996,1.0154 0.644298,0.081 1.126195,0.064 1.768311,0.066 1.251673,-0.034 2.45554,-0.3164 3.63718,-0.7067 0.954175,-0.3745 1.96592,-0.612 2.877425,-1.0872 0.717945,-0.3297 1.382318,-0.731 1.99585,-1.2253 0.725011,-0.5609 1.368782,-1.2233 2.009456,-1.8785 0.820708,-0.9167 1.616223,-1.858 2.363919,-2.8354 0.893989,-1.1536 1.891869,-2.2162 2.850669,-3.3135 0.89792,-0.9575 1.87032,-1.8398 2.79668,-2.7685 0.54541,-0.5982 1.17621,-1.1089 1.78394,-1.641 0.47294,-0.438 1.02271,-0.7816 1.55931,-1.1349 0.7856,-0.4468 1.61348,-0.6171 2.50188,-0.7129 2.30269,-0.1358 4.61178,-0.1636 6.91171,0.021 2.3387,0.3265 4.62802,0.9351 6.88032,1.6327 1.19645,0.4082 2.44503,0.8171 3.4664,1.5847 0.65122,0.5293 0.92344,1.3446 1.40027,2.0071 0.48986,0.7001 1.02768,1.3569 1.44641,2.1046 0.3216,0.6698 0.75613,1.2707 1.07356,1.9411 0.32225,0.4588 0.46531,0.9756 0.64493,1.4944 0.27848,0.3354 0.25212,0.7678 0.36839,1.1604 0.14733,0.3889 0.21883,0.7941 0.27092,1.2048 0.0299,0.2881 0.0353,0.5777 0.037,0.8671 -0.0238,0.2428 0.11024,0.4498 0.20901,0.6644 0.10609,0.2848 0.12086,0.5884 0.13407,0.8886 -0.008,0.2471 0.0508,0.5081 -0.0354,0.7433 -0.12471,0.2926 -0.28997,0.5637 -0.4299,0.8488 -0.21426,0.3515 -0.46351,0.6827 -0.66801,1.0397 -0.18488,0.4422 -0.57269,0.7402 -0.81445,1.1397 -0.27183,0.3056 -0.50776,0.6306 -0.83609,0.8814 -0.5828,0.5399 -1.30724,0.8866 -1.99593,1.2684 -1.14763,0.6156 -2.33524,1.1538 -3.53232,1.6659 -1.45044,0.6691 -3.01573,1.0305 -4.53915,1.4905 -1.17685,0.4634 -2.4301,0.6433 -3.63651,0.9971 -0.88248,0.2779 -1.49321,0.9199 -2.06414,1.611 -0.78965,1.1128 -1.3618,2.3437 -1.77506,3.6394 -0.47632,1.6899 -0.76721,3.4175 -0.93482,5.1627 -0.1004,1.2002 -0.12017,2.4046 -0.12513,3.6083 -0.0702,0.9532 -0.21324,1.8977 -0.28009,2.8513 -0.18177,1.3345 -0.46337,2.6517 -0.8042,3.9538 -0.4956,1.8684 -1.40675,3.554 -2.3282,5.2348 -0.6732,1.2379 -1.31697,2.4988 -2.26053,3.5551 -0.83985,0.9209 -1.9516,1.3589 -3.07045,1.8358 -1.53572,0.7021 -3.17517,1.0033 -4.837908,1.2059 -1.474951,0.099 -2.960946,0.2169 -4.440175,0.125 -0.428816,-0.027 -1.929678,-0.2499 -2.327797,-0.3067 -1.990187,-0.2969 -3.891376,-0.8915 -5.785088,-1.5478 -1.158994,-0.4964 -1.728467,-1.4893 -2.191602,-2.6003 -0.603133,-1.8491 -1.046521,-3.7559 -1.380625,-5.6717 -0.326387,-1.8673 -0.335197,-3.7644 -0.459953,-5.6498 -0.191084,-1.7488 -0.170049,-3.5126 -0.363835,-5.2593 -0.151286,-2.0498 -0.46044,-4.0753 -0.900399,-6.0815 -0.498651,-2.2459 -1.141309,-4.4525 -1.650722,-6.6962 -0.681822,-2.5782 -1.358154,-5.1578 -2.047692,-7.734 -0.281775,-1.2755 -0.653458,-2.5264 -1.006296,-3.783 0,0 0.345065,-0.01 0.345065,-0.01 l 0,0 c 0.350007,1.2571 0.720667,2.5081 1.001873,3.7835 0.688381,2.5769 1.366706,5.1564 2.047765,7.7353 0.510653,2.2437 1.154491,4.4502 1.652819,6.6964 0.439301,2.0075 0.749164,4.0343 0.90088,6.0851 0.193695,1.7473 0.174918,3.5114 0.364268,5.2608 0.125504,1.8841 0.132155,3.7801 0.458768,5.6462 0.334649,1.9133 0.776639,3.8183 1.382969,5.6639 0.463348,1.1036 1.033489,2.0854 2.189283,2.5715 1.891547,0.6563 3.792216,1.2463 5.780466,1.5417 0.62105,0.088 1.691277,0.2499 2.327967,0.3025 1.251137,0.1035 2.51337,-0.063 3.761636,-0.1219 1.661613,-0.1999 3.300603,-0.4958 4.835713,-1.1964 1.11552,-0.4753 2.22722,-0.9063 3.06817,-1.8208 0.94609,-1.0515 1.58937,-2.3112 2.26172,-3.5472 0.92053,-1.6783 1.83451,-3.3599 2.32874,-5.2263 0.34006,-1.3 0.61753,-2.6154 0.80029,-3.9474 0.0663,-0.9529 0.21002,-1.8966 0.28062,-2.849 0.004,-1.2048 0.0272,-2.4102 0.12719,-3.6115 0.16821,-1.7476 0.45988,-3.4775 0.93565,-5.17 0.41154,-1.3002 0.98471,-2.5343 1.77257,-3.6527 0.57174,-0.6955 1.18192,-1.3463 2.06638,-1.6315 1.20568,-0.3593 2.46248,-0.5294 3.63923,-0.9965 1.52209,-0.461 3.08738,-0.8195 4.53738,-1.4869 1.19601,-0.5122 2.38368,-1.0476 3.53066,-1.6625 0.68668,-0.3812 1.41332,-0.7236 1.9932,-1.2639 0.33081,-0.2439 0.56083,-0.569 0.83488,-0.8679 0.23635,-0.403 0.63093,-0.6954 0.81454,-1.1389 0.20135,-0.3578 0.45205,-0.688 0.66775,-1.0375 0.13743,-0.2852 0.30493,-0.5543 0.42923,-0.8459 0.0923,-0.2266 0.0232,-0.4886 0.0354,-0.7289 -0.0129,-0.2957 -0.0272,-0.5952 -0.13399,-0.875 -0.10026,-0.2188 -0.23431,-0.4313 -0.20944,-0.6793 -0.001,-0.288 -0.007,-0.5762 -0.0365,-0.8629 -0.0515,-0.409 -0.12449,-0.8119 -0.27071,-1.1993 -0.11317,-0.3934 -0.0945,-0.821 -0.36807,-1.1587 -0.17726,-0.5185 -0.32577,-1.0313 -0.64405,-1.4906 -0.31782,-0.669 -0.75206,-1.2697 -1.07281,-1.9387 -0.42002,-0.7452 -0.95727,-1.4015 -1.4459,-2.1009 -0.47088,-0.6629 -0.74799,-1.4723 -1.3996,-1.9964 -1.02404,-0.7581 -2.26611,-1.1678 -3.46052,-1.5735 -2.25134,-0.696 -4.53981,-1.3043 -6.878,-1.6254 -2.0754,-0.164 -4.15387,-0.1588 -6.23203,-0.022 -0.88679,0.093 -1.71071,0.2566 -2.49746,0.6969 -0.53693,0.3506 -1.08522,0.6951 -1.55898,1.1301 -0.60788,0.5316 -1.23951,1.0412 -1.7854,1.6384 -0.92537,0.9294 -1.89935,1.8098 -2.79819,2.7662 -0.95633,1.0983 -1.95689,2.1576 -2.84968,3.3113 -0.746713,0.9794 -1.544343,1.92 -2.363295,2.8396 -0.641338,0.6556 -1.283518,1.321 -2.008499,1.8828 -0.614611,0.4959 -1.275168,0.9043 -1.997202,1.2318 -0.908603,0.4839 -1.92482,0.7155 -2.879042,1.0929 -1.40077,0.4645 -2.83324,0.7654 -4.320621,0.7172 -0.651083,0 -1.114497,0.012 -1.768343,-0.072 -1.285123,-0.1655 -2.53269,-0.5877 -3.74662,-1.0215 0,0 0.343646,-0.042 0.343646,-0.042 z"
       inkscape:connector-curvature="0" />
    <ellipse
       style="fill:#000000;fill-opacity:1;fill-rule:evenodd;stroke:#000000;stroke-width:1.04307723px;stroke-linecap:butt;stroke-linejoin:miter;stroke-opacity:1"
       id="path5221"
       cx="659.16992"
       cy="1097.1119"
       rx="3.8340697"
       ry="4.0093246" />
    <g
       id="g5243"
       transform="translate(543.28262,226.53298)">
      <path
         inkscape:connector-curvature="0"
         id="path5217"
         d="m 118.82285,874.30319 15.77294,-6.65969 14.72141,-2.10306 12.96887,0 6.65969,1.75255 3.85561,1.75255 2.10305,3.15459 0.35051,5.25764 -3.50509,11.91734 -10.16479,7.71122 -11.56683,5.25765 -2.45357,1.75254 -2.10305,5.25765 -1.75255,7.0102 -1.75255,2.80408 -8.76275,3.15459 -7.71122,1.05153 -7.01019,1.05153 z"
         style="fill:#000000;fill-opacity:1;fill-rule:evenodd;stroke:#000000;stroke-width:1px;stroke-linecap:butt;stroke-linejoin:miter;stroke-opacity:1" />
      <path
         inkscape:connector-curvature="0"
         id="path5223"
         d="m 122.15269,876.5815 6.13392,-2.45357 6.13392,-2.45357 2.27832,-1.05153 7.18545,-0.87627 5.78341,-0.70102 7.36071,-0.52577 6.48443,0.35051 4.73189,1.40204 3.15459,2.27832 1.05153,4.55662 -0.70102,2.10306 -2.27832,0.35051 -3.85561,-1.05153 -3.68035,-0.52576 -4.38137,-0.70102 -6.83495,-0.35051 -8.76274,-1.05153 -4.03087,-0.52576 -4.20611,0.17525 -4.73189,0.35051 -4.90714,0.52577 z"
         style="fill:#ff5000;fill-opacity:1;fill-rule:evenodd;stroke:#000000;stroke-width:1px;stroke-linecap:butt;stroke-linejoin:miter;stroke-opacity:1" />
      <path
         inkscape:connector-curvature="0"
         id="path5225"
         d="m 123.37947,878.33405 3.85561,-0.52577 6.65969,-0.17525 4.73188,0 6.30918,0.70102 4.20612,0.52576 5.08239,0.17526 5.0824,0.52576 6.13392,1.05153 3.32984,0.52577 1.22679,1.05153 0.17525,3.5051 -2.45357,3.15459 -2.10306,1.40203 -2.80408,-1.40203 -3.50509,-1.92781 -4.20612,-1.57729 -4.55663,-1.22679 -4.03086,-1.05153 -5.60816,-0.87627 -7.53596,-1.22679 -6.83495,-0.70102 -3.68035,0 z"
         style="fill:#ff5000;fill-opacity:1;fill-rule:evenodd;stroke:#000000;stroke-width:1px;stroke-linecap:butt;stroke-linejoin:miter;stroke-opacity:1" />
      <path
         inkscape:connector-curvature="0"
         id="path5227"
         d="m 123.37947,882.36491 4.73189,0.17526 6.65968,0.87627 6.48444,1.22679 5.25765,0.70102 6.30917,1.9278 4.20612,1.5773 3.85561,1.75254 1.05153,2.80408 -2.10306,2.10306 -2.45357,0.87628 -2.10306,-0.87628 -2.97933,-2.62882 -1.75255,-2.27832 -1.92781,-1.57729 -3.50509,-0.87627 -4.90714,-0.87628 -4.03087,-0.87627 -6.30917,-1.75255 z"
         style="fill:#ff5000;fill-opacity:1;fill-rule:evenodd;stroke:#000000;stroke-width:1px;stroke-linecap:butt;stroke-linejoin:miter;stroke-opacity:1" />
      <path
         inkscape:connector-curvature="0"
         id="path5229"
         d="m 123.72998,885.16899 5.95867,1.75255 4.90714,1.40204 5.95867,1.05153 4.55663,0.87627 2.45356,0.87628 3.85561,4.03086 1.22679,2.27832 -0.17526,1.57729 -1.9278,1.5773 -2.80408,0.70102 -1.75255,-0.35051 -4.38137,-4.73189 -4.55663,-2.62882 -5.4329,-3.32985 -3.68036,-2.27831 z"
         style="fill:#ff5000;fill-opacity:1;fill-rule:evenodd;stroke:#000000;stroke-width:1px;stroke-linecap:butt;stroke-linejoin:miter;stroke-opacity:1" />
      <path
         inkscape:connector-curvature="0"
         id="path5237"
         d="m 123.02896,893.40597 7.36071,4.55663 6.30918,4.20612 4.73188,2.97933 2.27832,3.32985 -0.70102,4.03086 -2.45357,1.75255 -3.85561,-1.22678 -3.5051,-4.90714 -1.9278,-3.32985 -4.90714,-7.01019 z"
         style="fill:#ff9d00;fill-opacity:1;fill-rule:evenodd;stroke:#000000;stroke-width:1px;stroke-linecap:butt;stroke-linejoin:miter;stroke-opacity:1" />
      <path
         inkscape:connector-curvature="0"
         id="path5239"
         d="m 123.20422,897.9626 4.20612,5.4329 3.68035,5.43291 2.97933,4.90714 3.32985,2.62882 0,1.9278 -2.62883,1.40204 -2.97933,0.35051 -2.80408,0.35051 -1.22678,-2.27831 0.52576,-2.62882 0.17526,-2.97934 -1.75255,-5.95867 -1.5773,-4.03086 z"
         style="fill:#ff9d00;fill-opacity:1;fill-rule:evenodd;stroke:#000000;stroke-width:1px;stroke-linecap:butt;stroke-linejoin:miter;stroke-opacity:1" />
      <path
         inkscape:connector-curvature="0"
         id="path5241"
         d="m 122.5032,902.16872 1.40204,5.95867 1.05153,3.85561 0.52576,3.32984 -0.17525,5.25765 -1.40204,1.22678 -1.92781,0.17526 -0.70102,-1.40204 0,-2.80408 0,-7.18545 z"
         style="fill:#ff9d00;fill-opacity:1;fill-rule:evenodd;stroke:#000000;stroke-width:1px;stroke-linecap:butt;stroke-linejoin:miter;stroke-opacity:1" />
    </g>
    <g
       id="g5253"
       transform="matrix(-1,0,0,1,775.01062,226.53298)">
      <path
         style="fill:#000000;fill-opacity:1;fill-rule:evenodd;stroke:#000000;stroke-width:1px;stroke-linecap:butt;stroke-linejoin:miter;stroke-opacity:1"
         d="m 118.82285,874.30319 15.77294,-6.65969 14.72141,-2.10306 12.96887,0 6.65969,1.75255 3.85561,1.75255 2.10305,3.15459 0.35051,5.25764 -3.50509,11.91734 -10.16479,7.71122 -11.56683,5.25765 -2.45357,1.75254 -2.10305,5.25765 -1.75255,7.0102 -1.75255,2.80408 -8.76275,3.15459 -7.71122,1.05153 -7.01019,1.05153 z"
         id="path5255"
         inkscape:connector-curvature="0" />
      <path
         style="fill:#ff4e00;fill-opacity:1;fill-rule:evenodd;stroke:#000000;stroke-width:1px;stroke-linecap:butt;stroke-linejoin:miter;stroke-opacity:1"
         d="m 122.15269,876.5815 6.13392,-2.45357 6.13392,-2.45357 2.27832,-1.05153 7.18545,-0.87627 5.78341,-0.70102 7.36071,-0.52577 6.48443,0.35051 4.73189,1.40204 3.15459,2.27832 1.05153,4.55662 -0.70102,2.10306 -2.27832,0.35051 -3.85561,-1.05153 -3.68035,-0.52576 -4.38137,-0.70102 -6.83495,-0.35051 -8.76274,-1.05153 -4.03087,-0.52576 -4.20611,0.17525 -4.73189,0.35051 -4.90714,0.52577 z"
         id="path5257"
         inkscape:connector-curvature="0" />
      <path
         style="fill:#ff4e00;fill-opacity:1;fill-rule:evenodd;stroke:#000000;stroke-width:1px;stroke-linecap:butt;stroke-linejoin:miter;stroke-opacity:1"
         d="m 123.37947,878.33405 3.85561,-0.52577 6.65969,-0.17525 4.73188,0 6.30918,0.70102 4.20612,0.52576 5.08239,0.17526 5.0824,0.52576 6.13392,1.05153 3.32984,0.52577 1.22679,1.05153 0.17525,3.5051 -2.45357,3.15459 -2.10306,1.40203 -2.80408,-1.40203 -3.50509,-1.92781 -4.20612,-1.57729 -4.55663,-1.22679 -4.03086,-1.05153 -5.60816,-0.87627 -7.53596,-1.22679 -6.83495,-0.70102 -3.68035,0 z"
         id="path5259"
         inkscape:connector-curvature="0" />
      <path
         style="fill:#ff4e00;fill-opacity:1;fill-rule:evenodd;stroke:#000000;stroke-width:1px;stroke-linecap:butt;stroke-linejoin:miter;stroke-opacity:1"
         d="m 123.37947,882.36491 4.73189,0.17526 6.65968,0.87627 6.48444,1.22679 5.25765,0.70102 6.30917,1.9278 4.20612,1.5773 3.85561,1.75254 1.05153,2.80408 -2.10306,2.10306 -2.45357,0.87628 -2.10306,-0.87628 -2.97933,-2.62882 -1.75255,-2.27832 -1.92781,-1.57729 -3.50509,-0.87627 -4.90714,-0.87628 -4.03087,-0.87627 -6.30917,-1.75255 z"
         id="path5261"
         inkscape:connector-curvature="0" />
      <path
         style="fill:#ff4e00;fill-opacity:1;fill-rule:evenodd;stroke:#000000;stroke-width:1px;stroke-linecap:butt;stroke-linejoin:miter;stroke-opacity:1"
         d="m 123.72998,885.16899 5.95867,1.75255 4.90714,1.40204 5.95867,1.05153 4.55663,0.87627 2.45356,0.87628 3.85561,4.03086 1.22679,2.27832 -0.17526,1.57729 -1.9278,1.5773 -2.80408,0.70102 -1.75255,-0.35051 -4.38137,-4.73189 -4.55663,-2.62882 -5.4329,-3.32985 -3.68036,-2.27831 z"
         id="path5263"
         inkscape:connector-curvature="0" />
      <path
         style="fill:#ff9d00;fill-opacity:1;fill-rule:evenodd;stroke:#000000;stroke-width:1px;stroke-linecap:butt;stroke-linejoin:miter;stroke-opacity:1"
         d="m 123.02896,893.40597 7.36071,4.55663 6.30918,4.20612 4.73188,2.97933 2.27832,3.32985 -0.70102,4.03086 -2.45357,1.75255 -3.85561,-1.22678 -3.5051,-4.90714 -1.9278,-3.32985 -4.90714,-7.01019 z"
         id="path5265"
         inkscape:connector-curvature="0" />
      <path
         style="fill:#ff9d00;fill-opacity:1;fill-rule:evenodd;stroke:#000000;stroke-width:1px;stroke-linecap:butt;stroke-linejoin:miter;stroke-opacity:1"
         d="m 123.20422,897.9626 4.20612,5.4329 3.68035,5.43291 2.97933,4.90714 3.32985,2.62882 0,1.9278 -2.62883,1.40204 -2.97933,0.35051 -2.80408,0.35051 -1.22678,-2.27831 0.52576,-2.62882 0.17526,-2.97934 -1.75255,-5.95867 -1.5773,-4.03086 z"
         id="path5267"
         inkscape:connector-curvature="0" />
      <path
         style="fill:#ff9d00;fill-opacity:1;fill-rule:evenodd;stroke:#000000;stroke-width:1px;stroke-linecap:butt;stroke-linejoin:miter;stroke-opacity:1"
         d="m 122.5032,902.16872 1.40204,5.95867 1.05153,3.85561 0.52576,3.32984 -0.17525,5.25765 -1.40204,1.22678 -1.92781,0.17526 -0.70102,-1.40204 0,-2.80408 0,-7.18545 z"
         id="path5269"
         inkscape:connector-curvature="0" />
    </g>
    <path
       style="fill:#000000;fill-opacity:1;fill-rule:evenodd;stroke:none;stroke-width:1px;stroke-linecap:butt;stroke-linejoin:miter;stroke-opacity:1"
       d="m 657.16872,1098.7098 -0.61962,2.2306 -1.61101,1.7349 -0.74354,2.8503 -0.12393,5.4526 0.24785,4.4613 0.86747,5.7005 0.99139,3.222 0.12392,8.4269 0.24785,17.4732 1.48709,0.2479 2.10671,0.1239 1.73493,-1.1153 0.12393,-25.2805 1.11532,-3.3459 0.61961,-5.4527 0,-5.5766 -0.37177,-6.444 -0.86747,-2.2307 -1.11531,-2.2306"
       id="path5271"
       inkscape:connector-curvature="0"
       sodipodi:nodetypes="cccccccccccccccccccc" />
    <path
       style="opacity:0;fill:none;fill-opacity:1;fill-rule:evenodd;stroke:#000000;stroke-width:0.18402708;stroke-linecap:round;stroke-linejoin:bevel;stroke-miterlimit:4;stroke-dasharray:none;stroke-dashoffset:0;stroke-opacity:1"
       d="m 659.1345,1150.0151 c -0.23855,-0.023 -0.77826,-0.074 -1.19935,-0.113 l -0.76561,-0.071 -0.0659,-0.7656 c -0.0362,-0.4211 -0.12993,-11.2842 -0.20824,-24.1401 -0.12801,-21.0155 -0.12308,-23.4043 0.0489,-23.6695 0.10518,-0.1623 0.25726,-0.5599 0.33796,-0.8836 0.0807,-0.3238 0.15403,-0.5886 0.16298,-0.5886 0.009,0 0.30963,0.1116 0.6682,0.2478 0.781,0.2969 2.20161,0.325 2.94186,0.058 0.27263,-0.098 0.53752,-0.1794 0.58864,-0.1804 0.12719,0 0.11805,0.4637 -0.0107,0.5432 -0.057,0.035 -0.14075,6.2982 -0.18616,13.9178 -0.0454,7.6196 -0.11933,18.5949 -0.16426,24.3896 l -0.0817,10.5358 -0.64922,0.4005 c -0.35707,0.2202 -0.72448,0.3915 -0.81648,0.3806 -0.092,-0.011 -0.36244,-0.039 -0.60099,-0.062 z"
       id="path5273"
       inkscape:connector-curvature="0" />
    <path
       style="opacity:0;fill:none;fill-opacity:1;fill-rule:evenodd;stroke:#000000;stroke-width:0.18402708;stroke-linecap:round;stroke-linejoin:bevel;stroke-miterlimit:4;stroke-dasharray:none;stroke-dashoffset:0;stroke-opacity:1"
       d="m 659.1345,1150.0151 c -0.23855,-0.023 -0.77826,-0.074 -1.19935,-0.113 l -0.76561,-0.071 -0.0659,-0.7656 c -0.0362,-0.4211 -0.12993,-11.2842 -0.20824,-24.1401 -0.12801,-21.0155 -0.12308,-23.4043 0.0489,-23.6695 0.10518,-0.1623 0.25726,-0.5599 0.33796,-0.8836 0.0807,-0.3238 0.15403,-0.5886 0.16298,-0.5886 0.009,0 0.30963,0.1116 0.6682,0.2478 0.781,0.2969 2.20161,0.325 2.94186,0.058 0.27263,-0.098 0.53752,-0.1794 0.58864,-0.1804 0.12719,0 0.11805,0.4637 -0.0107,0.5432 -0.057,0.035 -0.14075,6.2982 -0.18616,13.9178 -0.0454,7.6196 -0.11933,18.5949 -0.16426,24.3896 l -0.0817,10.5358 -0.64922,0.4005 c -0.35707,0.2202 -0.72448,0.3915 -0.81648,0.3806 -0.092,-0.011 -0.36244,-0.039 -0.60099,-0.062 z"
       id="path5275"
       inkscape:connector-curvature="0" />
    <ellipse
       ry="0.61779583"
       rx="0.66212469"
       cy="1142.8735"
       cx="658.0368"
       id="ellipse5321"
       style="fill:#f0e7e7;fill-opacity:1;fill-rule:evenodd;stroke:none;stroke-width:1px;stroke-linecap:butt;stroke-linejoin:miter;stroke-opacity:1" />
    <ellipse
       style="fill:#f0e7e7;fill-opacity:1;fill-rule:evenodd;stroke:none;stroke-width:1px;stroke-linecap:butt;stroke-linejoin:miter;stroke-opacity:1"
       id="ellipse5323"
       cx="660.22748"
       cy="1142.8735"
       rx="0.66212469"
       ry="0.61779583" />
    <ellipse
       ry="0.61779583"
       rx="0.66212469"
       cy="1140.858"
       cx="660.22748"
       id="ellipse5325"
       style="fill:#f0e7e7;fill-opacity:1;fill-rule:evenodd;stroke:none;stroke-width:1px;stroke-linecap:butt;stroke-linejoin:miter;stroke-opacity:1" />
    <ellipse
       style="fill:#f0e7e7;fill-opacity:1;fill-rule:evenodd;stroke:none;stroke-width:1px;stroke-linecap:butt;stroke-linejoin:miter;stroke-opacity:1"
       id="ellipse5327"
       cx="658.12439"
       cy="1140.6829"
       rx="0.66212469"
       ry="0.61779583" />
    <ellipse
       ry="0.61779583"
       rx="0.66212469"
       cy="1138.6674"
       cx="658.12439"
       id="ellipse5329"
       style="fill:#f0e7e7;fill-opacity:1;fill-rule:evenodd;stroke:none;stroke-width:1px;stroke-linecap:butt;stroke-linejoin:miter;stroke-opacity:1" />
    <ellipse
       style="fill:#f0e7e7;fill-opacity:1;fill-rule:evenodd;stroke:none;stroke-width:1px;stroke-linecap:butt;stroke-linejoin:miter;stroke-opacity:1"
       id="ellipse5331"
       cx="660.13983"
       cy="1138.4922"
       rx="0.66212469"
       ry="0.61779583" />
    <ellipse
       ry="0.61779583"
       rx="0.66212469"
       cy="1109.838"
       cx="662.41815"
       id="ellipse5333"
       style="fill:#f0e7e7;fill-opacity:1;fill-rule:evenodd;stroke:none;stroke-width:1px;stroke-linecap:butt;stroke-linejoin:miter;stroke-opacity:1" />
    <ellipse
       style="fill:#f0e7e7;fill-opacity:1;fill-rule:evenodd;stroke:none;stroke-width:1px;stroke-linecap:butt;stroke-linejoin:miter;stroke-opacity:1"
       id="ellipse5335"
       cx="663.03156"
       cy="1113.0802"
       rx="0.66212469"
       ry="0.61779583" />
    <ellipse
       ry="0.61779583"
       rx="0.66212469"
       cy="1115.9719"
       cx="662.68103"
       id="ellipse5337"
       style="fill:#f0e7e7;fill-opacity:1;fill-rule:evenodd;stroke:none;stroke-width:1px;stroke-linecap:butt;stroke-linejoin:miter;stroke-opacity:1" />
    <ellipse
       style="fill:#f0e7e7;fill-opacity:1;fill-rule:evenodd;stroke:none;stroke-width:1px;stroke-linecap:butt;stroke-linejoin:miter;stroke-opacity:1"
       id="ellipse5339"
       cx="662.06763"
       cy="1119.0388"
       rx="0.66212469"
       ry="0.61779583" />
    <ellipse
       style="fill:#f0e7e7;fill-opacity:1;fill-rule:evenodd;stroke:none;stroke-width:1px;stroke-linecap:butt;stroke-linejoin:miter;stroke-opacity:1"
       id="ellipse5341"
       cx="-656.68103"
       cy="1109.838"
       rx="0.66212469"
       ry="0.61779583"
       transform="scale(-1,1)" />
    <ellipse
       ry="0.61779583"
       rx="0.66212469"
       cy="1113.0802"
       cx="-656.06763"
       id="ellipse5343"
       style="fill:#f0e7e7;fill-opacity:1;fill-rule:evenodd;stroke:none;stroke-width:1px;stroke-linecap:butt;stroke-linejoin:miter;stroke-opacity:1"
       transform="scale(-1,1)" />
    <ellipse
       style="fill:#f0e7e7;fill-opacity:1;fill-rule:evenodd;stroke:none;stroke-width:1px;stroke-linecap:butt;stroke-linejoin:miter;stroke-opacity:1"
       id="ellipse5345"
       cx="-656.41815"
       cy="1115.9719"
       rx="0.66212469"
       ry="0.61779583"
       transform="scale(-1,1)" />
    <ellipse
       ry="0.61779583"
       rx="0.66212469"
       cy="1119.0388"
       cx="-657.03156"
       id="ellipse5347"
       style="fill:#f0e7e7;fill-opacity:1;fill-rule:evenodd;stroke:none;stroke-width:1px;stroke-linecap:butt;stroke-linejoin:miter;stroke-opacity:1"
       transform="scale(-1,1)" />
    <g
       id="g5391"
       transform="translate(4.9569581,297.41749)">
      <path
         inkscape:connector-curvature="0"
         id="path5387"
         d="m 325.62367,941.95158 12.96886,-6.65968 6.65969,-2.27832 14.37091,-2.27831 13.31937,-1.05153 12.79361,0.70102 11.04106,1.40204 9.28851,2.80408 5.25765,2.62882 4.38137,3.5051 -13.84513,3.68035 -11.04107,1.92781 -9.46376,1.05153 -13.66989,1.40204 -11.39157,0.87627 -8.938,0 -7.71122,-1.05153 -6.65968,-1.57729 -6.48444,-2.97934 z"
         style="fill:#323232;fill-opacity:1;fill-rule:evenodd;stroke:#000000;stroke-width:1px;stroke-linecap:butt;stroke-linejoin:miter;stroke-opacity:1" />
      <path
         inkscape:connector-curvature="0"
         id="path5389"
         d="m 352.08716,961.22963 6.48444,-7.01019 5.08239,-3.85561 10.5153,-4.20612 11.74208,-2.97934 12.96886,-2.80407 10.69055,1.22678 -0.70102,6.13392 -9.28851,5.60816 -10.16479,4.20612 -14.3709,5.25765 -7.71122,1.40204 -8.23698,-0.17526 -4.03086,-0.87627 -3.5051,-1.92781"
         style="fill:#ff9000;fill-opacity:1;fill-rule:evenodd;stroke:#000000;stroke-width:1px;stroke-linecap:butt;stroke-linejoin:miter;stroke-opacity:1" />
    </g>
    <circle
       style="fill:#000000;fill-opacity:1;fill-rule:evenodd;stroke:#000000;stroke-width:1px;stroke-linecap:butt;stroke-linejoin:miter;stroke-opacity:1"
       id="path5285"
       cx="417.87152"
       cy="1223.3601"
       r="4.4612622" />
    <path
       inkscape:connector-curvature="0"
       id="path5283"
       d="m 419.26429,1226.4753 2.47848,9.914 0.99139,10.1617 -3.22202,16.1101 -2.23063,14.1274 0.49569,-51.3045 z"
       style="fill:#000000;fill-opacity:1;fill-rule:evenodd;stroke:#000000;stroke-width:1px;stroke-linecap:butt;stroke-linejoin:miter;stroke-opacity:1" />
    <path
       style="fill:#000000;fill-opacity:1;fill-rule:evenodd;stroke:#000000;stroke-width:1px;stroke-linecap:butt;stroke-linejoin:miter;stroke-opacity:1"
       d="m 416.24298,1226.3649 -2.62314,9.8766 -1.13983,10.1462 2.98618,16.1555 2.02388,14.1584 0.25433,-51.3062 z"
       id="path5281"
       inkscape:connector-curvature="0" />
    <g
       transform="matrix(-1,0,0,1,1080.7324,297.41749)"
       id="g5401">
      <path
         inkscape:connector-curvature="0"
         id="path5403"
         d="m 325.62367,941.95158 12.96886,-6.65968 6.65969,-2.27832 14.37091,-2.27831 13.31937,-1.05153 12.79361,0.70102 11.04106,1.40204 9.28851,2.80408 5.25765,2.62882 4.38137,3.5051 -13.84513,3.68035 -11.04107,1.92781 -9.46376,1.05153 -13.66989,1.40204 -11.39157,0.87627 -8.938,0 -7.71122,-1.05153 -6.65968,-1.57729 -6.48444,-2.97934 z"
         style="fill:#a2266e;fill-opacity:1;fill-rule:evenodd;stroke:#000000;stroke-width:1px;stroke-linecap:butt;stroke-linejoin:miter;stroke-opacity:1" />
      <path
         inkscape:connector-curvature="0"
         id="path5405"
         d="m 352.08716,961.22963 6.48444,-7.01019 5.08239,-3.85561 10.5153,-4.20612 11.74208,-2.97934 12.96886,-2.80407 10.69055,1.22678 -0.70102,6.13392 -9.28851,5.60816 -10.16479,4.20612 -14.3709,5.25765 -7.71122,1.40204 -8.23698,-0.17526 -4.03086,-0.87627 -3.5051,-1.92781"
         style="fill:#9e93ca;fill-opacity:1;fill-rule:evenodd;stroke:#000000;stroke-width:1px;stroke-linecap:butt;stroke-linejoin:miter;stroke-opacity:1" />
    </g>
    <text
       xml:space="preserve"
       style="font-style:normal;font-weight:normal;font-size:12.5px;line-height:125%;font-family:sans-serif;letter-spacing:0px;word-spacing:0px;fill:#000000;fill-opacity:1;stroke:none;stroke-width:1px;stroke-linecap:butt;stroke-linejoin:miter;stroke-opacity:1"
       x="606.901"
       y="1282.3651"
       id="text5407"
       sodipodi:linespacing="125%"><tspan
         sodipodi:role="line"
         id="tspan5409"
         x="606.901"
         y="1282.3651"
         style="font-style:normal;font-variant:normal;font-weight:bold;font-stretch:normal;font-size:25px;font-family:InaiMathi;-inkscape-font-specification:'InaiMathi Bold'">Easy Infographics</tspan></text>
    <g
       id="g5411"
       transform="translate(254.95696,297.41749)">
      <path
         style="fill:#a2266e;fill-opacity:1;fill-rule:evenodd;stroke:#000000;stroke-width:1px;stroke-linecap:butt;stroke-linejoin:miter;stroke-opacity:1"
         d="m 325.62367,941.95158 12.96886,-6.65968 6.65969,-2.27832 14.37091,-2.27831 13.31937,-1.05153 12.79361,0.70102 11.04106,1.40204 9.28851,2.80408 5.25765,2.62882 4.38137,3.5051 -13.84513,3.68035 -11.04107,1.92781 -9.46376,1.05153 -13.66989,1.40204 -11.39157,0.87627 -8.938,0 -7.71122,-1.05153 -6.65968,-1.57729 -6.48444,-2.97934 z"
         id="path5413"
         inkscape:connector-curvature="0" />
      <path
         style="fill:#9e93ca;fill-opacity:1;fill-rule:evenodd;stroke:#000000;stroke-width:1px;stroke-linecap:butt;stroke-linejoin:miter;stroke-opacity:1"
         d="m 352.08716,961.22963 6.48444,-7.01019 5.08239,-3.85561 10.5153,-4.20612 11.74208,-2.97934 12.96886,-2.80407 10.69055,1.22678 -0.70102,6.13392 -9.28851,5.60816 -10.16479,4.20612 -14.3709,5.25765 -7.71122,1.40204 -8.23698,-0.17526 -4.03086,-0.87627 -3.5051,-1.92781"
         id="path5415"
         inkscape:connector-curvature="0" />
    </g>
    <circle
       r="4.4612622"
       cy="1223.3601"
       cx="667.87152"
       id="circle5417"
       style="fill:#000000;fill-opacity:1;fill-rule:evenodd;stroke:#000000;stroke-width:1px;stroke-linecap:butt;stroke-linejoin:miter;stroke-opacity:1" />
    <path
       style="fill:#000000;fill-opacity:1;fill-rule:evenodd;stroke:#000000;stroke-width:1px;stroke-linecap:butt;stroke-linejoin:miter;stroke-opacity:1"
       d="m 669.26429,1226.4753 2.47848,9.914 0.99139,10.1617 -3.22202,16.1101 -2.23063,14.1274 0.49569,-51.3045 z"
       id="path5419"
       inkscape:connector-curvature="0" />
    <path
       inkscape:connector-curvature="0"
       id="path5421"
       d="m 666.24298,1226.3649 -2.62314,9.8766 -1.13983,10.1462 2.98618,16.1555 2.02388,14.1584 0.25433,-51.3062 z"
       style="fill:#000000;fill-opacity:1;fill-rule:evenodd;stroke:#000000;stroke-width:1px;stroke-linecap:butt;stroke-linejoin:miter;stroke-opacity:1" />
    <g
       id="g5423"
       transform="matrix(-1,0,0,1,1310.7324,297.41749)">
      <path
         style="fill:#4479b6;fill-opacity:1;fill-rule:evenodd;stroke:#000000;stroke-width:1px;stroke-linecap:butt;stroke-linejoin:miter;stroke-opacity:1"
         d="m 325.62367,941.95158 12.96886,-6.65968 6.65969,-2.27832 14.37091,-2.27831 13.31937,-1.05153 12.79361,0.70102 11.04106,1.40204 9.28851,2.80408 5.25765,2.62882 4.38137,3.5051 -13.84513,3.68035 -11.04107,1.92781 -9.46376,1.05153 -13.66989,1.40204 -11.39157,0.87627 -8.938,0 -7.71122,-1.05153 -6.65968,-1.57729 -6.48444,-2.97934 z"
         id="path5425"
         inkscape:connector-curvature="0" />
      <path
         style="fill:#8ccaee;fill-opacity:1;fill-rule:evenodd;stroke:#000000;stroke-width:1px;stroke-linecap:butt;stroke-linejoin:miter;stroke-opacity:1"
         d="m 352.08716,961.22963 6.48444,-7.01019 5.08239,-3.85561 10.5153,-4.20612 11.74208,-2.97934 12.96886,-2.80407 10.69055,1.22678 -0.70102,6.13392 -9.28851,5.60816 -10.16479,4.20612 -14.3709,5.25765 -7.71122,1.40204 -8.23698,-0.17526 -4.03086,-0.87627 -3.5051,-1.92781"
         id="path5427"
         inkscape:connector-curvature="0" />
    </g>
    <text
       sodipodi:linespacing="125%"
       id="text5429"
       y="1282.3651"
       x="836.901"
       style="font-style:normal;font-weight:normal;font-size:12.5px;line-height:125%;font-family:sans-serif;letter-spacing:0px;word-spacing:0px;fill:#000000;fill-opacity:1;stroke:none;stroke-width:1px;stroke-linecap:butt;stroke-linejoin:miter;stroke-opacity:1"
       xml:space="preserve"><tspan
         style="font-style:normal;font-variant:normal;font-weight:bold;font-stretch:normal;font-size:25px;font-family:InaiMathi;-inkscape-font-specification:'InaiMathi Bold'"
         y="1282.3651"
         x="836.901"
         id="tspan5431"
         sodipodi:role="line">Easy Infographics</tspan></text>
    <g
       transform="translate(484.95696,297.41749)"
       id="g5433">
      <path
         inkscape:connector-curvature="0"
         id="path5435"
         d="m 325.62367,941.95158 12.96886,-6.65968 6.65969,-2.27832 14.37091,-2.27831 13.31937,-1.05153 12.79361,0.70102 11.04106,1.40204 9.28851,2.80408 5.25765,2.62882 4.38137,3.5051 -13.84513,3.68035 -11.04107,1.92781 -9.46376,1.05153 -13.66989,1.40204 -11.39157,0.87627 -8.938,0 -7.71122,-1.05153 -6.65968,-1.57729 -6.48444,-2.97934 z"
         style="fill:#4479b6;fill-opacity:1;fill-rule:evenodd;stroke:#000000;stroke-width:1px;stroke-linecap:butt;stroke-linejoin:miter;stroke-opacity:1" />
      <path
         inkscape:connector-curvature="0"
         id="path5437"
         d="m 352.08716,961.22963 6.48444,-7.01019 5.08239,-3.85561 10.5153,-4.20612 11.74208,-2.97934 12.96886,-2.80407 10.69055,1.22678 -0.70102,6.13392 -9.28851,5.60816 -10.16479,4.20612 -14.3709,5.25765 -7.71122,1.40204 -8.23698,-0.17526 -4.03086,-0.87627 -3.5051,-1.92781"
         style="fill:#8ccaee;fill-opacity:1;fill-rule:evenodd;stroke:#000000;stroke-width:1px;stroke-linecap:butt;stroke-linejoin:miter;stroke-opacity:1" />
    </g>
    <circle
       style="fill:#000000;fill-opacity:1;fill-rule:evenodd;stroke:#000000;stroke-width:1px;stroke-linecap:butt;stroke-linejoin:miter;stroke-opacity:1"
       id="circle5439"
       cx="897.87152"
       cy="1223.3601"
       r="4.4612622" />
    <path
       inkscape:connector-curvature="0"
       id="path5441"
       d="m 899.26429,1226.4753 2.47848,9.914 0.99139,10.1617 -3.22202,16.1101 -2.23063,14.1274 0.49569,-51.3045 z"
       style="fill:#000000;fill-opacity:1;fill-rule:evenodd;stroke:#000000;stroke-width:1px;stroke-linecap:butt;stroke-linejoin:miter;stroke-opacity:1" />
    <path
       style="fill:#000000;fill-opacity:1;fill-rule:evenodd;stroke:#000000;stroke-width:1px;stroke-linecap:butt;stroke-linejoin:miter;stroke-opacity:1"
       d="m 896.24298,1226.3649 -2.62314,9.8766 -1.13983,10.1462 2.98618,16.1555 2.02388,14.1584 0.25433,-51.3062 z"
       id="path5443"
       inkscape:connector-curvature="0" />
    <g
       transform="matrix(-1,0,0,1,576.44045,304.85292)"
       id="g5445">
      <path
         inkscape:connector-curvature="0"
         id="path5447"
         d="m 325.62367,941.95158 12.96886,-6.65968 6.65969,-2.27832 14.37091,-2.27831 13.31937,-1.05153 12.79361,0.70102 11.04106,1.40204 9.28851,2.80408 5.25765,2.62882 4.38137,3.5051 -13.84513,3.68035 -11.04107,1.92781 -9.46376,1.05153 -13.66989,1.40204 -11.39157,0.87627 -8.938,0 -7.71122,-1.05153 -6.65968,-1.57729 -6.48444,-2.97934 z"
         style="fill:#ff3800;fill-opacity:1;fill-rule:evenodd;stroke:#000000;stroke-width:1px;stroke-linecap:butt;stroke-linejoin:miter;stroke-opacity:1" />
      <path
         inkscape:connector-curvature="0"
         id="path5449"
         d="m 352.08716,961.22963 6.48444,-7.01019 5.08239,-3.85561 10.5153,-4.20612 11.74208,-2.97934 12.96886,-2.80407 10.69055,1.22678 -0.70102,6.13392 -9.28851,5.60816 -10.16479,4.20612 -14.3709,5.25765 -7.71122,1.40204 -8.23698,-0.17526 -4.03086,-0.87627 -3.5051,-1.92781"
         style="fill:#ff9000;fill-opacity:1;fill-rule:evenodd;stroke:#000000;stroke-width:1px;stroke-linecap:butt;stroke-linejoin:miter;stroke-opacity:1" />
    </g>
    <text
       xml:space="preserve"
       style="font-style:normal;font-weight:normal;font-size:12.5px;line-height:125%;font-family:sans-serif;letter-spacing:0px;word-spacing:0px;fill:#000000;fill-opacity:1;stroke:none;stroke-width:1px;stroke-linecap:butt;stroke-linejoin:miter;stroke-opacity:1"
       x="102.60903"
       y="1289.8005"
       id="text5451"
       sodipodi:linespacing="125%"><tspan
         sodipodi:role="line"
         id="tspan5453"
         x="102.60903"
         y="1289.8005"
         style="font-style:normal;font-variant:normal;font-weight:bold;font-stretch:normal;font-size:25px;font-family:InaiMathi;-inkscape-font-specification:'InaiMathi Bold';fill:#333333">Easy Infographics</tspan></text>
    <g
       id="g5455"
       transform="translate(-249.33499,304.85292)">
      <path
         style="fill:#ff3800;fill-opacity:1;fill-rule:evenodd;stroke:#000000;stroke-width:1px;stroke-linecap:butt;stroke-linejoin:miter;stroke-opacity:1"
         d="m 325.62367,941.95158 12.96886,-6.65968 6.65969,-2.27832 14.37091,-2.27831 13.31937,-1.05153 12.79361,0.70102 11.04106,1.40204 9.28851,2.80408 5.25765,2.62882 4.38137,3.5051 -13.84513,3.68035 -11.04107,1.92781 -9.46376,1.05153 -13.66989,1.40204 -11.39157,0.87627 -8.938,0 -7.71122,-1.05153 -6.65968,-1.57729 -6.48444,-2.97934 z"
         id="path5457"
         inkscape:connector-curvature="0" />
      <path
         style="fill:#ff9000;fill-opacity:1;fill-rule:evenodd;stroke:#000000;stroke-width:1px;stroke-linecap:butt;stroke-linejoin:miter;stroke-opacity:1"
         d="m 352.08716,961.22963 6.48444,-7.01019 5.08239,-3.85561 10.5153,-4.20612 11.74208,-2.97934 12.96886,-2.80407 10.69055,1.22678 -0.70102,6.13392 -9.28851,5.60816 -10.16479,4.20612 -14.3709,5.25765 -7.71122,1.40204 -8.23698,-0.17526 -4.03086,-0.87627 -3.5051,-1.92781"
         id="path5459"
         inkscape:connector-curvature="0" />
    </g>
    <circle
       r="4.4612622"
       cy="1230.5476"
       cx="163.82741"
       id="circle5461"
       style="fill:#323232;fill-opacity:1;fill-rule:evenodd;stroke:#323232;stroke-width:1px;stroke-linecap:butt;stroke-linejoin:miter;stroke-opacity:1" />
    <path
       style="fill:#323232;fill-opacity:1;fill-rule:evenodd;stroke:#323232;stroke-width:1px;stroke-linecap:butt;stroke-linejoin:miter;stroke-opacity:1"
       d="m 165.22019,1233.6629 2.47848,9.9139 0.99139,10.1618 -3.22202,16.1101 -2.23063,14.1274 0.49569,-51.3046 z"
       id="path5463"
       inkscape:connector-curvature="0" />
    <path
       inkscape:connector-curvature="0"
       id="path5465"
       d="m 162.19888,1233.5525 -2.62314,9.8766 -1.13983,10.1462 2.98618,16.1555 2.02388,14.1584 0.25433,-51.3062 z"
       style="fill:#323232;fill-opacity:1;fill-rule:evenodd;stroke:#323232;stroke-width:1px;stroke-linecap:butt;stroke-linejoin:miter;stroke-opacity:1" />
    <text
       sodipodi:linespacing="125%"
       id="text5467"
       y="1012.2109"
       x="25.280468"
       style="font-style:normal;font-weight:normal;font-size:12.5px;line-height:125%;font-family:sans-serif;letter-spacing:0px;word-spacing:0px;fill:#000000;fill-opacity:1;stroke:none;stroke-width:1px;stroke-linecap:butt;stroke-linejoin:miter;stroke-opacity:1"
       xml:space="preserve"><tspan
         style="font-style:normal;font-variant:normal;font-weight:bold;font-stretch:normal;font-size:25px;font-family:InaiMathi;-inkscape-font-specification:'InaiMathi Bold';fill:#333333"
         y="1012.2109"
         x="25.280468"
         id="tspan5469"
         sodipodi:role="line">Easy Infographics</tspan></text>
    <ellipse
       ry="3.5520098"
       rx="3.9942393"
       cy="987.76587"
       cx="58.890392"
       id="ellipse5489"
       style="fill:#6d8ce6;fill-opacity:1;fill-rule:evenodd;stroke:#323232;stroke-width:1.23624718;stroke-linecap:butt;stroke-linejoin:miter;stroke-miterlimit:4;stroke-dasharray:none;stroke-opacity:1" />
    <ellipse
       style="fill:#f5cb25;fill-opacity:1;fill-rule:evenodd;stroke:#323232;stroke-width:1.27843547;stroke-linecap:butt;stroke-linejoin:miter;stroke-miterlimit:4;stroke-dasharray:none;stroke-opacity:1"
       id="ellipse5499"
       cx="90.029091"
       cy="976.78967"
       rx="6.6112447"
       ry="5.8792686" />
    <ellipse
       style="fill:#ff7b00;fill-opacity:1;fill-rule:evenodd;stroke:#323232;stroke-width:1.27843547;stroke-linecap:butt;stroke-linejoin:miter;stroke-miterlimit:4;stroke-dasharray:none;stroke-opacity:1"
       id="ellipse5501"
       cx="109.99113"
       cy="982.65369"
       rx="8.0222597"
       ry="7.1340609" />
    <ellipse
       ry="4.4989982"
       rx="5.0591288"
       cy="979.22809"
       cx="71.53376"
       id="ellipse5503"
       style="fill:#64bc9e;fill-opacity:1;fill-rule:evenodd;stroke:#323232;stroke-width:1.24252439px;stroke-linecap:butt;stroke-linejoin:miter;stroke-opacity:1" />
    <text
       sodipodi:linespacing="125%"
       id="text5531"
       y="871.92889"
       x="35.690105"
       style="font-style:normal;font-weight:normal;font-size:12.5px;line-height:125%;font-family:sans-serif;letter-spacing:0px;word-spacing:0px;fill:#000000;fill-opacity:1;stroke:none;stroke-width:1px;stroke-linecap:butt;stroke-linejoin:miter;stroke-opacity:1"
       xml:space="preserve"><tspan
         style="font-style:normal;font-variant:normal;font-weight:bold;font-stretch:normal;font-size:25px;font-family:InaiMathi;-inkscape-font-specification:'InaiMathi Bold';fill:#333333"
         y="871.92889"
         x="35.690105"
         id="tspan5533"
         sodipodi:role="line">Easy Infographics</tspan></text>
    <g
       id="g5525"
       transform="matrix(-0.59948689,0,0,0.59948689,344.29811,275.11451)">
      <path
         style="fill:#ff3800;fill-opacity:1;fill-rule:evenodd;stroke:#000000;stroke-width:1px;stroke-linecap:butt;stroke-linejoin:miter;stroke-opacity:1"
         d="m 325.62367,941.95158 12.96886,-6.65968 6.65969,-2.27832 14.37091,-2.27831 13.31937,-1.05153 12.79361,0.70102 11.04106,1.40204 9.28851,2.80408 5.25765,2.62882 4.38137,3.5051 -13.84513,3.68035 -11.04107,1.92781 -9.46376,1.05153 -13.66989,1.40204 -11.39157,0.87627 -8.938,0 -7.71122,-1.05153 -6.65968,-1.57729 -6.48444,-2.97934 z"
         id="path5527"
         inkscape:connector-curvature="0" />
      <path
         style="fill:#ff9000;fill-opacity:1;fill-rule:evenodd;stroke:#000000;stroke-width:1px;stroke-linecap:butt;stroke-linejoin:miter;stroke-opacity:1"
         d="m 352.08716,961.22963 6.48444,-7.01019 5.08239,-3.85561 10.5153,-4.20612 11.74208,-2.97934 12.96886,-2.80407 10.69055,1.22678 -0.70102,6.13392 -9.28851,5.60816 -10.16479,4.20612 -14.3709,5.25765 -7.71122,1.40204 -8.23698,-0.17526 -4.03086,-0.87627 -3.5051,-1.92781"
         id="path5529"
         inkscape:connector-curvature="0" />
    </g>
    <g
       transform="matrix(0.59948689,0,0,0.59948689,-150.74344,275.11451)"
       id="g5535">
      <path
         inkscape:connector-curvature="0"
         id="path5537"
         d="m 325.62367,941.95158 12.96886,-6.65968 6.65969,-2.27832 14.37091,-2.27831 13.31937,-1.05153 12.79361,0.70102 11.04106,1.40204 9.28851,2.80408 5.25765,2.62882 4.38137,3.5051 -13.84513,3.68035 -11.04107,1.92781 -9.46376,1.05153 -13.66989,1.40204 -11.39157,0.87627 -8.938,0 -7.71122,-1.05153 -6.65968,-1.57729 -6.48444,-2.97934 z"
         style="fill:#ff3800;fill-opacity:1;fill-rule:evenodd;stroke:#000000;stroke-width:1px;stroke-linecap:butt;stroke-linejoin:miter;stroke-opacity:1" />
      <path
         inkscape:connector-curvature="0"
         id="path5539"
         d="m 352.08716,961.22963 6.48444,-7.01019 5.08239,-3.85561 10.5153,-4.20612 11.74208,-2.97934 12.96886,-2.80407 10.69055,1.22678 -0.70102,6.13392 -9.28851,5.60816 -10.16479,4.20612 -14.3709,5.25765 -7.71122,1.40204 -8.23698,-0.17526 -4.03086,-0.87627 -3.5051,-1.92781"
         style="fill:#ff9000;fill-opacity:1;fill-rule:evenodd;stroke:#000000;stroke-width:1px;stroke-linecap:butt;stroke-linejoin:miter;stroke-opacity:1" />
    </g>
    <circle
       style="fill:#323232;fill-opacity:1;fill-rule:evenodd;stroke:#323232;stroke-width:0.59948689px;stroke-linecap:butt;stroke-linejoin:miter;stroke-opacity:1"
       id="circle5541"
       cx="96.942001"
       cy="830.05634"
       r="2.6744683" />
    <path
       inkscape:connector-curvature="0"
       id="path5543"
       d="m 97.776951,831.92393 1.48582,5.94326 0.59432,6.0918 -1.93156,9.65786 -1.337234,8.46914 0.29716,-30.75639 z"
       style="fill:#323232;fill-opacity:1;fill-rule:evenodd;stroke:#323232;stroke-width:0.59948689px;stroke-linecap:butt;stroke-linejoin:miter;stroke-opacity:1" />
    <path
       style="fill:#323232;fill-opacity:1;fill-rule:evenodd;stroke:#323232;stroke-width:0.59948689px;stroke-linecap:butt;stroke-linejoin:miter;stroke-opacity:1"
       d="m 95.965717,831.85769 -1.57254,5.92095 -0.68332,6.08252 1.79018,9.68495 1.21329,8.48788 0.15247,-30.7575 z"
       id="path5545"
       inkscape:connector-curvature="0" />
    <path
       style="fill:#f0f0f0;fill-opacity:1;fill-rule:evenodd;stroke:#000000;stroke-width:0.69999999;stroke-linecap:butt;stroke-linejoin:miter;stroke-miterlimit:4;stroke-dasharray:none;stroke-opacity:1"
       d="m 389.50346,836.33229 -7.77469,-3.99241 -3.9924,-1.36581 -8.61517,-1.36581 -7.9848,-0.63042 -7.6696,0.42024 -6.61893,0.84054 -5.56835,1.68102 -3.1519,1.57593 -2.62657,2.10126 8.29997,2.2063 6.61895,1.15569 5.67342,0.63042 8.19493,0.84048 6.82912,0.52533 5.35821,0 4.62276,-0.63036 3.9924,-0.94557 3.88732,-1.78611 z"
       id="path5564"
       inkscape:connector-curvature="0" />
    <path
       style="fill:#f0f0f0;fill-opacity:1;fill-rule:evenodd;stroke:#000000;stroke-width:0.69999999;stroke-linecap:butt;stroke-linejoin:miter;stroke-miterlimit:4;stroke-dasharray:none;stroke-opacity:1"
       d="m 373.63894,847.88919 -3.88738,-4.20252 -3.04677,-2.31138 -6.30378,-2.5215 -7.03924,-1.78605 -7.77468,-1.68103 -6.40884,0.73546 0.42026,3.67719 5.56834,3.36198 6.09366,2.52156 8.61517,3.15186 4.62276,0.84054 4.93797,-0.10509 2.41642,-0.52533 2.10126,-1.15569"
       id="path5566"
       inkscape:connector-curvature="0" />
    <path
       inkscape:connector-curvature="0"
       id="path5570"
       d="m 284.87615,836.33229 7.77466,-3.99241 3.9924,-1.36581 8.61517,-1.36581 7.98479,-0.63042 7.6696,0.42024 6.61897,0.84054 5.56834,1.68102 3.15189,1.57593 2.62658,2.10126 -8.29998,2.2063 -6.61897,1.15569 -5.6734,0.63042 -8.19492,0.84048 -6.8291,0.52533 -5.35821,0 -4.62278,-0.63036 -3.99239,-0.94557 -3.88734,-1.78611 z"
       style="fill:#f0f0f0;fill-opacity:1;fill-rule:evenodd;stroke:#000000;stroke-width:0.69999999;stroke-linecap:butt;stroke-linejoin:miter;stroke-miterlimit:4;stroke-dasharray:none;stroke-opacity:1" />
    <path
       inkscape:connector-curvature="0"
       id="path5572"
       d="m 300.74067,847.88919 3.88733,-4.20252 3.04683,-2.31138 6.30378,-2.5215 7.03923,-1.78605 7.77466,-1.68103 6.40884,0.73546 -0.42025,3.67719 -5.56834,3.36198 -6.09366,2.52156 -8.61516,3.15186 -4.62278,0.84054 -4.93796,-0.10509 -2.41645,-0.52533 -2.10126,-1.15569"
       style="fill:#f0f0f0;fill-opacity:1;fill-rule:evenodd;stroke:#000000;stroke-width:0.69999999;stroke-linecap:butt;stroke-linejoin:miter;stroke-miterlimit:4;stroke-dasharray:none;stroke-opacity:1" />
    <circle
       r="2.6744683"
       cy="826.58649"
       cx="337.35449"
       id="circle5574"
       style="fill:#323232;fill-opacity:1;fill-rule:evenodd;stroke:#323232;stroke-width:0.59948689px;stroke-linecap:butt;stroke-linejoin:miter;stroke-opacity:1" />
    <path
       style="fill:#323232;fill-opacity:1;fill-rule:evenodd;stroke:#323232;stroke-width:0.59948689px;stroke-linecap:butt;stroke-linejoin:miter;stroke-opacity:1"
       d="m 338.18942,828.45407 1.48582,5.94325 0.59433,6.09187 -1.93156,9.65779 -1.33724,8.46912 0.29716,-30.75636 z"
       id="path5576"
       inkscape:connector-curvature="0" />
    <path
       inkscape:connector-curvature="0"
       id="path5578"
       d="m 336.37819,828.38788 -1.57254,5.9209 -0.68331,6.08251 1.79017,9.68501 1.21329,8.4878 0.15247,-30.75748 z"
       style="fill:#323232;fill-opacity:1;fill-rule:evenodd;stroke:#323232;stroke-width:0.59948689px;stroke-linecap:butt;stroke-linejoin:miter;stroke-opacity:1" />
    <text
       xml:space="preserve"
       style="font-style:normal;font-weight:normal;font-size:12.5px;line-height:125%;font-family:sans-serif;letter-spacing:0px;word-spacing:0px;fill:#000000;fill-opacity:1;stroke:none;stroke-width:1px;stroke-linecap:butt;stroke-linejoin:miter;stroke-opacity:1"
       x="276.10254"
       y="868.45905"
       id="text5558"
       sodipodi:linespacing="125%"><tspan
         sodipodi:role="line"
         id="tspan5560"
         x="276.10254"
         y="868.45905"
         style="font-style:normal;font-variant:normal;font-weight:bold;font-stretch:normal;font-size:25px;font-family:InaiMathi;-inkscape-font-specification:'InaiMathi Bold';fill:#333333">Easy Infographics</tspan></text>
    <path
       style="fill:#333333;fill-rule:evenodd;stroke:#323232;stroke-width:1px;stroke-linecap:butt;stroke-linejoin:miter;stroke-opacity:1"
       d="m 215.13198,1006.2712 768.32851,-0.4957"
       id="path5600"
       inkscape:connector-curvature="0" />
  </g>
</svg>
